<svg xmlns="http://www.w3.org/2000/svg" width="77" height="87" fill="none"><path fill="url(#a)" d="m53.024 83.997 23.613-60.933c.728-1.912-.34-3.728-2.065-4.851-6.56-4.278-12.875-8.388-19.775-11.59C47.898 3.423 40.44 1.176 31.573.579c-5.368-.358-7.482 17.396-8.065 35.389-.583 17.993.413 36.201 1.263 36.775 10.69 7.168 10.203 6.452 18.949 11.709 2.04 1.242 6.316 4.062 9.304-.454Z"/><path fill="url(#b)" d="M67.722 13.835C61.454 10.203 54.263 5.352 46.004 3.68a83.921 83.921 0 0 0-24.002-1.362c-1.676.143-2.963 1.816-3.255 4.133-.947 7.408.437 19.284 1.142 31.232.826 14.098 3.595 32.57 4.98 35.054 5.83 3.823 5.442 3.656 12.146 7.886 3.401 2.15 5.952 2.963 8.503-.24.121-.167.389-.644.534-.836l11.685-30.156 12.05-30.705c.728-1.888-.292-3.823-2.065-4.85Z"/><path fill="url(#c)" fill-opacity=".6" d="M60.512 9.7c-5.927-3.01-14.04-7.144-23.734-8.171C27.304.5 18.923 2.413 12.364 4.038c-1.798.454-2.94 2.413-2.672 4.492 1.19 8.889 4.42 19.714 6.462 30.849 1.87 10.18 5.393 20.502 6.291 25.233 1.458 7.647 3.353 8.507 8.017 11.948 1.944 1.434 5.879 2.509 8.065-.573.073-.096.365-.765.438-.86l11.563-29.87 12.05-30.705c.728-1.912-.22-3.92-2.066-4.851Z"/><path fill="url(#d)" d="M31.395 71.896 55.118 10.68a3.808 3.808 0 0 0-2.075-4.873C47.43 3.382 38.546.502 27.417.574A64.417 64.417 0 0 0 2.45 5.807C.546 6.647-.357 8.784.4 10.704L12.26 41.312 24.122 71.92c1.27 3.29 6.004 3.29 7.273-.024Z"/><defs><linearGradient id="a" x1="42.908" x2="44.569" y1="-4.215" y2="115.805" gradientUnits="userSpaceOnUse"><stop stop-color="#2ECA4C"/><stop offset="1" stop-color="#16371C"/></linearGradient><linearGradient id="b" x1="38.376" x2="38.451" y1="18.288" y2="86.466" gradientUnits="userSpaceOnUse"><stop stop-color="#4BC762"/><stop offset="0" stop-color="#78C787"/><stop offset="1" stop-color="#50AB60" stop-opacity=".5"/></linearGradient><linearGradient id="c" x1="38.501" x2="38.501" y1=".572" y2="86.466" gradientUnits="userSpaceOnUse"><stop stop-color="#2EA56E"/><stop offset="1" stop-color="#03AA23" stop-opacity=".5"/></linearGradient><linearGradient id="d" x1="27.752" x2="27.752" y1=".572" y2="153.309" gradientUnits="userSpaceOnUse"><stop offset=".194" stop-color="#5CDD75"/><stop offset="1" stop-color="#EBFFEE"/></linearGradient></defs></svg>