<svg xmlns="http://www.w3.org/2000/svg" width="115" height="137" fill="none"><g fill="#BBC" clip-path="url(#a)"><path d="M71.202 88.373c-.456-1.714-.881-3.116-1.185-4.542-.126-.598-.123-1.285.04-1.871.482-1.754 1.013-3.503 1.64-5.209.428-1.164.46-2.217.004-3.39-.66-1.695-1.128-3.463-1.727-5.183-.563-1.611.226-2.942.915-4.239.387-.726 1.348-.878 1.99-.403.494.363 1.108 1.316.945 1.688-.835 1.91-.164 3.618.57 5.234 1.43 3.137 1.432 6.173-.086 9.238-1.075 2.17-1.072 4.333-.209 6.594.545 1.428.83 2.953 1.208 4.441.433 1.7-.623 2.765-2.321 2.301-1.724-.47-3.42-1.039-5.144-1.494a2.426 2.426 0 0 0-1.411.086 58.277 58.277 0 0 0-3.927 1.717c-.804.384-1.561.467-2.35.017-.187-.106-.39-.177-.588-.26-1.346-.567-2.694-1.586-4.036-1.577-1.346.011-2.714.987-4.017 1.651-1.081.55-2.085.67-3.141.029-.12-.075-.258-.12-.39-.178-1.28-.543-2.56-1.516-3.836-1.508-1.28.009-2.593.922-3.82 1.571-1.217.644-2.35.77-3.527.006-2.688-1.746-5.459-1.952-8.36-.535-.536.263-1.155.37-1.746.504-1.59.363-2.62-.662-2.218-2.238.6-2.353 1.265-4.69 1.842-7.049a3.352 3.352 0 0 0-.035-1.651c-.585-1.986-1.308-3.932-1.855-5.927a4.494 4.494 0 0 1-.012-2.266c.514-1.892 1.242-3.726 1.759-5.62.192-.705.177-1.549-.015-2.253-.505-1.857-1.228-3.657-1.724-5.517a4.712 4.712 0 0 1 .017-2.364c.537-1.96 1.26-3.87 1.836-5.82.15-.507.155-1.131.009-1.638-.565-1.954-1.277-3.869-1.805-5.832-.198-.741-.215-1.623-.017-2.361.537-1.997 1.262-3.944 1.845-5.932a3.298 3.298 0 0 0 .043-1.655c-.562-2.289-1.22-4.553-1.807-6.833-.491-1.91.57-2.916 2.484-2.37 1.65.472 3.279 1.005 4.937 1.442.442.118.993.1 1.417-.063 1.334-.509 2.642-1.093 3.936-1.697.778-.363 1.489-.346 2.258.018 1.26.595 2.527 1.181 3.83 1.67.439.167 1.035.141 1.491-.005.847-.272 1.633-.721 2.462-1.053 1.03-.41 1.925-.057 2.326.861.382.876.07 1.769-.895 2.224-1.322.624-2.665 1.222-4.042 1.714-.447.16-1.067.072-1.532-.103-1.136-.42-2.278-.878-3.327-1.474-1.056-.598-1.991-.572-2.978.055-2.625 1.665-5.345 2.057-8.21.309l-.161.306c.275 1.047.456 2.13.843 3.134.735 1.903.758 3.757-.146 5.583-1.653 3.348-1.653 6.676.006 10.019.93 1.874.932 3.757.011 5.643-1.626 3.334-1.733 6.674-.017 10.016 1.079 2.104.826 4.187-.035 6.345.264-.252.531-.498.79-.756 3.19-3.185 6.377-6.373 9.567-9.558 1.394-1.394 2.074-1.388 3.497.029l27.224 27.118c.224.223.462.438.91.861ZM41.367 63.868c-4.25 4.14-8.555 8.328-12.832 12.54-.178.177-.198.65-.115.936.419 1.44.97 2.842 1.322 4.295.192.79.227 1.683.07 2.479-.316 1.594-.81 3.15-1.22 4.679.135.091.166.128.19.123.277-.063.576-.086.825-.21 2.353-1.155 4.616-.94 6.78.462 1.48.958 2.81.692 4.366-.015 4.194-1.906 2.653-1.946 6.813-.023 1.672.773 3.09.976 4.667-.04.683-.438 1.512-.64 2.24-1.013.77-.392 1.481-.363 2.253 0a89.927 89.927 0 0 0 3.921 1.723c.305.126.726.24.999.132 1.383-.559 2.737-1.194 4.05-1.778-8.175-8.164-16.314-16.286-24.332-24.293l.003.003Z"/><path d="M53.33 31.936c0-3.897-.012-7.798.003-11.695.014-3.486 1.558-6.113 4.598-7.804A3314.283 3314.283 0 0 1 76.707 2.083c2.706-1.48 5.506-1.56 8.21-.078 6.427 3.52 12.833 7.075 19.199 10.7 2.759 1.572 4.154 4.104 4.171 7.278.04 7.904.037 15.808 0 23.712-.015 3.303-1.512 5.844-4.366 7.504-2.531 1.474-5.113 2.867-7.68 4.275-1.153.633-2.203.404-2.685-.532-.462-.901-.084-1.843 1.024-2.461 2.435-1.357 4.868-2.716 7.315-4.05 2.014-1.098 2.981-2.772 2.975-5.065-.014-7.655-.009-15.307-.003-22.962 0-2.204-.938-3.838-2.866-4.908A19701.69 19701.69 0 0 1 83.446 5.188c-1.847-1.028-3.655-.993-5.505.043-6.082 3.402-12.178 6.773-18.271 10.156-1.965 1.09-2.915 2.744-2.912 4.994.014 7.69.012 15.379 0 23.068-.003 2.247.947 3.898 2.92 4.988a5097.618 5097.618 0 0 1 18.183 10.097c1.887 1.053 3.726 1.064 5.6 0a186.373 186.373 0 0 1 4.13-2.276c1.12-.6 2.1-.392 2.614.521.514.907.18 1.878-.912 2.499-1.524.864-3.044 1.734-4.605 2.527-2.67 1.359-5.393 1.382-8.02-.06a1795.002 1795.002 0 0 1-18.929-10.523c-2.914-1.646-4.38-4.238-4.406-7.59-.029-3.897-.006-7.798-.006-11.695h.003ZM17.255 59.361v-37.02c0-3.889 2-5.906 5.855-5.906h24.37c.359 0 .726-.037 1.07.031.872.178 1.383.727 1.437 1.629.052.853-.565 1.6-1.434 1.74-.35.057-.714.031-1.07.031h-24.37c-1.908 0-2.421.51-2.421 2.407V96.42c0 1.908.513 2.426 2.4 2.43h9.126c1.426 0 2.235.652 2.206 1.754-.026 1.061-.812 1.671-2.183 1.674-3.221.005-6.44.017-9.662 0-3.132-.017-5.318-2.212-5.321-5.363-.009-12.52-.003-25.038-.006-37.558l.003.003ZM58.663 102.287H40.42c-.321 0-.648.02-.964-.017-.938-.109-1.592-.836-1.575-1.726.014-.895.672-1.585 1.627-1.677.355-.034.714-.014 1.073-.014h36.057c1.962 0 2.462-.504 2.462-2.475V68.81c0-.357-.035-.724.025-1.07.164-.927.735-1.482 1.684-1.488.95-.003 1.518.555 1.696 1.477.06.312.029.64.029.964 0 9.295.002 18.593 0 27.888 0 3.634-2.083 5.703-5.732 5.706H58.663Z"/><path d="M63.637 30.245c0 2.879.003 5.449 0 8.018-.003 1.414-.666 2.233-1.761 2.201-1.068-.031-1.667-.804-1.67-2.183-.006-4.29.008-8.58-.009-12.867-.003-.953.267-1.711 1.234-2.017.927-.295 1.558.186 2.094.901 2.243 3.005 4.504 5.998 6.885 9.17.049-.433.098-.685.1-.934.006-2.395-.005-4.79.01-7.183.005-1.265.665-2.031 1.706-2.034 1.041-.006 1.718.764 1.721 2.023.012 4.361 0 8.723.009 13.08 0 .911-.278 1.632-1.185 1.947-.92.318-1.57-.12-2.109-.844-2.097-2.805-4.205-5.6-6.31-8.4-.167-.22-.348-.426-.71-.872l-.005-.006ZM41.251 54.207c-3.784-.018-6.856-3.148-6.819-6.943.04-3.792 3.161-6.831 6.971-6.791 3.735.04 6.776 3.136 6.765 6.888-.012 3.792-3.116 6.863-6.92 6.846h.003Zm3.483-6.914c-.017-1.858-1.59-3.4-3.449-3.383-1.879.017-3.408 1.548-3.41 3.42-.006 1.914 1.586 3.474 3.502 3.437 1.87-.037 3.38-1.597 3.36-3.474h-.003ZM80.861 26.734v3.437c1.687 0 3.357-.008 5.023.003.947.009 1.584.495 1.759 1.414.166.878-.238 1.551-1.076 1.869-.353.134-.769.134-1.156.137-1.495.014-2.986.006-4.593.006 0 1.62.006 3.148 0 4.673-.006 1.37-.61 2.155-1.67 2.186-1.098.032-1.758-.784-1.76-2.2-.007-4.256-.007-8.511 0-12.767 0-1.61.584-2.189 2.2-2.195 2.002-.005 4.007-.008 6.01 0 1.282.006 2.05.63 2.082 1.66.035 1.07-.766 1.757-2.088 1.766-1.535.011-3.073 0-4.73 0v.011ZM94.558 26.725c-.697 0-1.268.04-1.827-.008-.947-.083-1.598-.807-1.598-1.697 0-.896.651-1.669 1.598-1.689 2.358-.048 4.716-.046 7.071 0 .953.018 1.607.782 1.615 1.674.009.89-.642 1.626-1.583 1.712-.563.051-1.133.008-1.842.008v1.208c0 3.463.006 6.928 0 10.391 0 1.35-.643 2.138-1.71 2.14-1.067.006-1.718-.783-1.721-2.128-.006-3.818 0-7.633 0-11.61h-.003ZM5.316 9.589h6.699v6.77H5.316V9.59ZM89.46 97.185h6.737v6.75H89.46v-6.75Z"/></g><path fill="#BBC" d="M12.627 123.102h-1.994a3.05 3.05 0 0 0-1.195-1.95 3.3 3.3 0 0 0-1.016-.511 3.97 3.97 0 0 0-1.183-.173c-.754 0-1.43.19-2.026.569-.593.379-1.061.935-1.407 1.668-.34.733-.51 1.628-.51 2.685 0 1.065.17 1.965.51 2.698.346.732.817 1.286 1.413 1.661a3.705 3.705 0 0 0 2.014.563 4.08 4.08 0 0 0 1.176-.166 3.4 3.4 0 0 0 1.016-.505 3.065 3.065 0 0 0 1.208-1.924l1.994.006a5.334 5.334 0 0 1-.62 1.777 4.905 4.905 0 0 1-1.17 1.394 5.304 5.304 0 0 1-1.623.901c-.61.213-1.274.32-1.994.32-1.134 0-2.144-.269-3.03-.806-.886-.541-1.585-1.315-2.097-2.32-.507-1.006-.76-2.205-.76-3.599 0-1.398.255-2.597.767-3.599.511-1.005 1.21-1.777 2.096-2.314.887-.541 1.895-.811 3.024-.811.694 0 1.342.1 1.943.3a5.139 5.139 0 0 1 1.63.869c.482.38.88.844 1.195 1.394.316.545.529 1.17.64 1.873Zm6.346 9.032c-.92 0-1.723-.211-2.41-.633a4.266 4.266 0 0 1-1.598-1.771c-.379-.758-.569-1.645-.569-2.659 0-1.018.19-1.909.57-2.672.379-.762.911-1.355 1.597-1.777.687-.422 1.49-.632 2.41-.632.92 0 1.724.21 2.41.632.686.422 1.219 1.015 1.598 1.777.38.763.569 1.654.569 2.672 0 1.014-.19 1.901-.569 2.659a4.266 4.266 0 0 1-1.598 1.771c-.686.422-1.49.633-2.41.633Zm.007-1.605c.596 0 1.09-.157 1.482-.473.393-.315.682-.735.87-1.259a5.01 5.01 0 0 0 .287-1.732c0-.627-.095-1.202-.287-1.726-.188-.528-.477-.952-.87-1.272-.392-.32-.886-.479-1.482-.479-.601 0-1.1.159-1.496.479-.392.32-.684.744-.876 1.272a5.089 5.089 0 0 0-.281 1.726c0 .63.094 1.208.281 1.732.192.524.484.944.876 1.259.396.316.895.473 1.496.473Zm6.703 1.407v-9.819h1.835v1.598h.121c.205-.541.54-.963 1.004-1.265.464-.307 1.02-.46 1.668-.46.656 0 1.206.153 1.65.46.447.307.777.728.99 1.265h.102a2.76 2.76 0 0 1 1.119-1.252c.511-.316 1.12-.473 1.828-.473.89 0 1.617.279 2.18.837.566.558.85 1.4.85 2.525v6.584h-1.911v-6.405c0-.665-.181-1.147-.544-1.445a1.978 1.978 0 0 0-1.297-.447c-.622 0-1.106.191-1.451.575-.346.379-.518.867-.518 1.464v6.258h-1.905v-6.527c0-.532-.166-.961-.498-1.285-.333-.323-.765-.485-1.298-.485-.362 0-.697.096-1.004.287-.302.188-.547.45-.735.787a2.405 2.405 0 0 0-.274 1.169v6.054h-1.912Zm15.908 0v-9.819h1.912v9.819H41.59Zm.966-11.334c-.333 0-.618-.11-.857-.332a1.08 1.08 0 0 1-.352-.805c0-.316.118-.584.352-.806.239-.226.524-.339.857-.339.332 0 .615.113.85.339.238.222.358.49.358.806 0 .311-.12.579-.358.805a1.19 1.19 0 0 1-.85.332Zm5.428 5.504v5.83h-1.911v-9.819h1.834v1.598h.122c.226-.52.58-.937 1.06-1.252.487-.316 1.098-.473 1.835-.473.67 0 1.255.14 1.758.421.503.277.893.691 1.17 1.24.277.55.416 1.23.416 2.04v6.245h-1.912v-6.015c0-.712-.185-1.268-.556-1.669-.37-.405-.88-.607-1.528-.607-.443 0-.837.096-1.182.288-.341.191-.612.473-.812.843-.196.367-.294.81-.294 1.33Zm12.963 9.716c-.78 0-1.45-.102-2.013-.307-.559-.204-1.015-.475-1.368-.812a3.4 3.4 0 0 1-.793-1.106l1.643-.677c.115.187.268.386.46.594.196.213.46.395.793.544.336.149.769.223 1.297.223.725 0 1.324-.176 1.797-.53.472-.35.709-.908.709-1.675v-1.93h-.121a4.368 4.368 0 0 1-.499.697c-.213.255-.507.477-.882.664-.375.188-.863.282-1.464.282-.776 0-1.474-.182-2.096-.544-.618-.366-1.108-.905-1.47-1.617-.359-.716-.538-1.596-.538-2.64s.177-1.939.53-2.685c.359-.745.849-1.316 1.471-1.713.622-.4 1.327-.6 2.116-.6.61 0 1.101.102 1.476.306.375.201.667.435.876.703a5.6 5.6 0 0 1 .492.71h.141v-1.592h1.873v10.036c0 .844-.196 1.536-.588 2.077-.392.541-.923.942-1.592 1.202-.665.26-1.415.39-2.25.39Zm-.019-5.619c.55 0 1.014-.128 1.393-.383.384-.26.674-.631.87-1.112.2-.486.3-1.068.3-1.745 0-.661-.098-1.243-.294-1.745-.196-.503-.483-.895-.863-1.177-.379-.285-.848-.428-1.406-.428-.575 0-1.055.149-1.438.448-.384.294-.673.694-.87 1.201a4.779 4.779 0 0 0-.287 1.701c0 .643.098 1.208.294 1.693.196.486.486.865.87 1.138.387.273.864.409 1.431.409Zm19.133-5.689-1.732.307a2.068 2.068 0 0 0-.345-.633 1.713 1.713 0 0 0-.627-.492c-.264-.128-.594-.192-.99-.192-.542 0-.993.122-1.356.365-.362.238-.543.547-.543.927 0 .328.121.592.364.792.243.201.635.365 1.176.492l1.56.358c.903.209 1.577.531 2.02.966.443.434.665.999.665 1.693 0 .589-.17 1.113-.512 1.573-.336.456-.807.814-1.412 1.074-.601.26-1.298.39-2.09.39-1.1 0-1.997-.235-2.691-.703-.695-.473-1.121-1.145-1.279-2.014l1.847-.281c.115.481.352.846.71 1.093.358.243.825.364 1.4.364.626 0 1.127-.13 1.502-.39.375-.264.562-.586.562-.965a1 1 0 0 0-.345-.773c-.226-.209-.573-.367-1.042-.473l-1.662-.365c-.916-.208-1.593-.541-2.032-.997-.435-.456-.652-1.033-.652-1.732 0-.58.162-1.087.485-1.521.324-.435.772-.774 1.343-1.017.57-.247 1.225-.37 1.962-.37 1.061 0 1.897.23 2.506.69.61.456 1.012 1.067 1.208 1.834Zm6.429 7.62c-.92 0-1.724-.211-2.41-.633a4.266 4.266 0 0 1-1.598-1.771c-.38-.758-.569-1.645-.569-2.659 0-1.018.19-1.909.569-2.672.38-.762.912-1.355 1.598-1.777.686-.422 1.49-.632 2.41-.632.92 0 1.724.21 2.41.632.686.422 1.218 1.015 1.598 1.777.379.763.569 1.654.569 2.672 0 1.014-.19 1.901-.57 2.659a4.267 4.267 0 0 1-1.597 1.771c-.686.422-1.49.633-2.41.633Zm.006-1.605c.597 0 1.091-.157 1.483-.473.392-.315.682-.735.87-1.259a5.008 5.008 0 0 0 .287-1.732c0-.627-.096-1.202-.288-1.726-.187-.528-.477-.952-.869-1.272-.392-.32-.886-.479-1.483-.479-.6 0-1.1.159-1.496.479-.392.32-.684.744-.875 1.272a5.089 5.089 0 0 0-.282 1.726c0 .63.094 1.208.282 1.732.191.524.483.944.875 1.259.397.316.895.473 1.496.473Zm10.84 1.605c-.921 0-1.724-.211-2.41-.633a4.266 4.266 0 0 1-1.598-1.771c-.38-.758-.57-1.645-.57-2.659 0-1.018.19-1.909.57-2.672.379-.762.912-1.355 1.598-1.777.686-.422 1.489-.632 2.41-.632.92 0 1.723.21 2.41.632.685.422 1.218 1.015 1.597 1.777.38.763.569 1.654.569 2.672 0 1.014-.189 1.901-.569 2.659a4.266 4.266 0 0 1-1.598 1.771c-.686.422-1.49.633-2.41.633Zm.006-1.605c.596 0 1.09-.157 1.483-.473.392-.315.682-.735.87-1.259a5.008 5.008 0 0 0 .287-1.732c0-.627-.096-1.202-.288-1.726-.187-.528-.477-.952-.87-1.272-.391-.32-.886-.479-1.482-.479-.601 0-1.1.159-1.496.479-.392.32-.684.744-.876 1.272a5.089 5.089 0 0 0-.28 1.726c0 .63.093 1.208.28 1.732.192.524.484.944.876 1.259.396.316.895.473 1.496.473Zm8.615-4.423v5.83h-1.911v-9.819h1.834v1.598h.121c.226-.52.58-.937 1.062-1.252.485-.316 1.097-.473 1.834-.473.669 0 1.255.14 1.758.421.503.277.893.691 1.17 1.24.277.55.415 1.23.415 2.04v6.245h-1.911v-6.015c0-.712-.185-1.268-.556-1.669-.371-.405-.88-.607-1.528-.607a2.39 2.39 0 0 0-1.182.288 2.065 2.065 0 0 0-.812.843c-.196.367-.294.81-.294 1.33Z"/><defs><clipPath id="a"><path fill="#fff" d="M5.316.936h103v103h-103z"/></clipPath></defs></svg>