<svg xmlns="http://www.w3.org/2000/svg" width="21" height="21" fill="none"><path stroke="#35353A" stroke-linecap="round" stroke-linejoin="round" stroke-width="1.5" d="M12.226 8.854 8.01 13.071a2.98 2.98 0 1 1 4.217-4.217Z"/><path stroke="#35353A" stroke-linecap="round" stroke-linejoin="round" stroke-width="1.5" d="M14.967 5.771c-1.458-1.1-3.125-1.7-4.85-1.7-2.942 0-5.683 1.734-7.592 4.734-.75 1.175-.75 3.15 0 4.325a11.938 11.938 0 0 0 2.259 2.641"/><path stroke="#35353A" stroke-linecap="round" stroke-linejoin="round" stroke-width="1.5" d="M7.135 17.238c.95.4 1.958.617 2.983.617 2.942 0 5.683-1.734 7.592-4.734.75-1.175.75-3.15 0-4.325a13.506 13.506 0 0 0-.884-1.225" opacity=".4"/><path stroke="#35353A" stroke-linecap="round" stroke-linejoin="round" stroke-width="1.5" d="M13.041 11.546a2.97 2.97 0 0 1-2.35 2.35" opacity=".4"/><path stroke="#35353A" stroke-linecap="round" stroke-linejoin="round" stroke-width="1.5" d="m8.008 13.071-6.225 6.225M18.45 2.63l-6.225 6.225"/></svg>