<svg xmlns="http://www.w3.org/2000/svg" width="21" height="21" fill="none"><path stroke="#35353A" stroke-linecap="round" stroke-linejoin="round" stroke-width="1.5" d="M13.101 10.963a2.98 2.98 0 0 1-2.983 2.983 2.98 2.98 0 0 1-2.983-2.983 2.98 2.98 0 0 1 2.983-2.984 2.98 2.98 0 0 1 2.983 2.984Z" opacity=".4"/><path stroke="#35353A" stroke-linecap="round" stroke-linejoin="round" stroke-width="1.5" d="M10.117 17.854c2.942 0 5.683-1.733 7.592-4.733.75-1.175.75-3.15 0-4.325-1.909-3-4.65-4.733-7.592-4.733-2.942 0-5.683 1.733-7.592 4.733-.75 1.175-.75 3.15 0 4.325 1.909 3 4.65 4.733 7.592 4.733Z"/></svg>