<svg width="463" height="372" viewBox="0 0 463 372" fill="none" xmlns="http://www.w3.org/2000/svg">
	<path d="M248.846 9.10918L410.366 45.5282C428.246 49.5598 439.473 67.3044 435.448 85.1591L399.072 246.487C395.046 264.342 377.29 275.551 359.41 271.52L197.89 235.101C180.01 231.069 168.782 213.325 172.808 195.47L209.184 34.1418C213.21 16.2871 230.966 5.07762 248.846 9.10918Z" fill="#17E686" stroke="white" stroke-width="3.02821" />
	<path d="M279.774 123.235L312.664 102.447L333.462 135.355L352.601 123.259L319.707 71.2136L267.678 104.097L279.774 123.235ZM235.025 124.734L254.163 112.639L266.259 131.777L247.12 143.872L235.025 124.734ZM274.8 145.292L295.588 178.183L328.495 157.384L340.593 176.516L288.545 209.416L255.662 157.388L255.646 157.362L274.8 145.292ZM341.994 148.853L361.132 136.758L373.228 155.896L354.089 167.991L341.994 148.853ZM319.967 143.872L319.981 143.875L319.978 143.889L300.552 156.167L288.289 136.773L288.267 136.739L288.3 136.725L291.697 134.572L293.348 133.528L307.7 124.463L319.973 143.881L319.967 143.872Z" fill="white" />
	<path d="M404.558 171.915L283.783 194.077C269.481 196.702 260.017 210.41 262.644 224.695L284.832 345.326C287.46 359.612 301.184 369.065 315.486 366.44L436.261 344.278C450.563 341.654 460.028 327.946 457.4 313.661L435.212 193.029C432.584 178.744 418.86 169.291 404.558 171.915Z" fill="white" />
	<mask id="mask0_2738_59672" style="mask-type:alpha" maskUnits="userSpaceOnUse" x="262" y="171" width="196" height="196">
		<path d="M404.558 171.915L283.783 194.077C269.481 196.702 260.017 210.41 262.644 224.695L284.832 345.326C287.46 359.612 301.184 369.065 315.486 366.44L436.261 344.278C450.563 341.654 460.028 327.946 457.4 313.661L435.212 193.029C432.584 178.744 418.86 169.291 404.558 171.915Z" fill="white" />
	</mask>
	<g mask="url(#mask0_2738_59672)">
		<path d="M279.884 122.62L313.292 102.676L333.247 136.101L352.687 124.496L321.126 71.631L268.279 103.181L279.884 122.62ZM235.111 122.982L254.551 111.377L266.156 130.816L246.716 142.421L235.111 122.982ZM274.351 144.544L294.296 177.952L327.722 157.997L339.329 177.43L286.462 208.997L254.912 156.149L254.897 156.124L274.351 144.544ZM341.433 149.812L360.872 138.207L372.477 157.646L353.038 169.252L341.433 149.812ZM319.54 144.273L319.554 144.276L319.55 144.29L299.818 156.07L288.052 136.371L288.031 136.336L288.064 136.323L291.515 134.257L293.192 133.255L307.77 124.558L319.545 144.281L319.54 144.273Z" fill="#17E586" />
	</g>
	<path fill-rule="evenodd" clip-rule="evenodd" d="M308.718 230.29L347.164 222.984C370.546 218.541 390.632 227.589 400.66 244.396L412.636 242.12L414.711 253.04L405.258 254.837C405.768 256.527 406.196 258.27 406.535 260.053L406.586 260.323C406.968 262.33 407.227 264.336 407.36 266.317L416.89 264.506L418.964 275.42L406.759 277.739C403.378 296.839 388.129 312.474 365.01 316.867L326.559 324.174L320.838 294.066L307.477 296.605L305.403 285.691L318.764 283.153L316.585 271.687L303.224 274.226L301.15 263.312L314.511 260.773L308.718 230.29ZM331.581 292.025L335.442 312.339L363.137 307.076C380.236 303.827 391.387 293.275 394.982 279.977L331.581 292.025ZM396.2 268.437L329.507 281.111L327.329 269.645L394.045 256.967C394.628 258.723 395.108 260.547 395.467 262.436L395.517 262.7C395.884 264.631 396.107 266.54 396.199 268.431L396.2 268.437ZM349.026 232.753C366.195 229.49 380.522 235.425 388.741 246.655L325.252 258.72L321.32 238.024L349.015 232.761L349.026 232.753Z" fill="#17E586" />
	<path d="M133.35 119.258L40.298 176.436C29.2786 183.207 25.825 197.621 32.5841 208.631L89.661 301.603C96.4201 312.613 110.832 316.049 121.852 309.278L214.904 252.099C225.923 245.328 229.377 230.914 222.618 219.904L165.541 126.932C158.782 115.923 144.37 112.486 133.35 119.258Z" fill="#408DFF" />
	<g style="mix-blend-mode:hard-light">
		<path d="M143.113 219.424C141.845 211.875 136.879 210.047 127.637 210.488C121.019 210.71 119.435 209.204 118.928 206.185C118.421 203.167 120.254 200.862 124.567 200.137C128.45 199.485 130.827 200.417 132.447 203.472C132.773 204.082 133.493 204.404 134.14 204.295L137.594 203.715C138.458 203.569 138.997 202.813 138.851 201.949L138.815 201.731C137.153 197.128 132.653 194.115 127.621 194.519L126.751 189.341C126.606 188.476 125.85 187.938 124.737 187.906L121.501 188.45C120.636 188.595 120.098 189.351 120.066 190.464L120.9 195.424C114.573 197.376 111.197 202.378 112.103 207.774C113.299 214.893 118.084 216.975 127.326 216.529C133.549 216.591 135.708 217.559 136.289 221.013C136.869 224.466 134.249 227.345 130.148 228.034C124.541 228.976 122.2 226.931 121.01 223.804C120.647 222.975 119.927 222.654 119.28 222.763L115.614 223.379C114.75 223.524 114.211 224.28 114.356 225.145L114.393 225.362C116.164 230.612 120.265 233.916 127.565 233.797L128.435 238.975C128.58 239.839 129.336 240.378 130.449 240.409L133.685 239.866C134.55 239.72 135.088 238.964 135.12 237.852L134.25 232.674C140.535 230.505 144.092 225.249 143.113 219.424Z" fill="white" />
		<path d="M121.676 246.317C103.833 243.102 92.0487 225.783 95.5179 208.121C97.2316 198.516 103.191 190.418 111.491 185.696C112.284 185.121 112.605 184.402 112.423 183.32L111.916 180.301C111.77 179.436 111.232 178.861 110.332 178.794C110.114 178.831 109.684 178.903 109.503 179.157C90.0974 189.073 82.5379 212.746 92.4541 232.157C98.367 243.584 109.204 251.304 121.936 253.157C122.873 253.442 123.661 252.868 123.733 251.966C123.914 251.712 123.878 251.5 123.805 251.065L123.298 248.047C123.188 247.394 122.397 246.643 121.676 246.317ZM133.232 175.165C132.295 174.881 131.508 175.455 131.436 176.356C131.255 176.61 131.29 176.822 131.364 177.257L131.871 180.276C132.016 181.141 132.808 181.891 133.528 182.218C151.371 185.433 163.156 202.752 159.686 220.414C157.973 230.018 152.013 238.116 143.713 242.838C142.921 243.413 142.6 244.133 142.781 245.215L143.289 248.234C143.434 249.098 143.972 249.673 144.873 249.74C145.09 249.704 145.52 249.632 145.701 249.378C165.107 239.462 172.666 215.789 162.75 196.378C156.802 184.738 145.752 177.055 133.232 175.165Z" fill="white" />
	</g>
</svg>
