<svg width="23" height="23" viewBox="0 0 23 23" fill="none" xmlns="http://www.w3.org/2000/svg">
	<path d="M21.0988 16.8422C21.0988 17.1722 21.0255 17.5114 20.8696 17.8414C20.7138 18.1714 20.5121 18.483 20.2463 18.7764C19.7971 19.2714 19.3021 19.6289 18.743 19.858C18.193 20.0872 17.5971 20.2064 16.9555 20.2064C16.0205 20.2064 15.0213 19.9864 13.9671 19.5372C12.913 19.088 11.8588 18.483 10.8138 17.7222C9.75964 16.9522 8.76047 16.0997 7.80714 15.1555C6.86297 14.2022 6.01047 13.203 5.24964 12.158C4.49797 11.113 3.89297 10.068 3.45297 9.03221C3.01297 7.98721 2.79297 6.98805 2.79297 6.03471C2.79297 5.41138 2.90297 4.81555 3.12297 4.26555C3.34297 3.70638 3.6913 3.19305 4.17714 2.73471C4.7638 2.15721 5.40547 1.87305 6.0838 1.87305C6.34047 1.87305 6.59714 1.92805 6.8263 2.03805C7.06464 2.14805 7.27547 2.31305 7.44047 2.55138L9.56714 5.54888C9.73214 5.77805 9.8513 5.98888 9.9338 6.19055C10.0163 6.38305 10.0621 6.57555 10.0621 6.74971C10.0621 6.96971 9.99797 7.18971 9.86964 7.40055C9.75047 7.61138 9.5763 7.83138 9.3563 8.05138L8.65963 8.77555C8.5588 8.87638 8.51297 8.99555 8.51297 9.14221C8.51297 9.21555 8.52214 9.27971 8.54047 9.35305C8.56797 9.42638 8.59547 9.48138 8.6138 9.53638C8.7788 9.83888 9.06297 10.233 9.4663 10.7097C9.8788 11.1864 10.3188 11.6722 10.7955 12.158C11.2905 12.6439 11.7671 13.093 12.253 13.5055C12.7296 13.9089 13.1238 14.1839 13.4355 14.3489C13.4813 14.3672 13.5363 14.3947 13.6005 14.4222C13.6738 14.4497 13.7471 14.4589 13.8296 14.4589C13.9855 14.4589 14.1046 14.4039 14.2055 14.303L14.9021 13.6155C15.1313 13.3864 15.3513 13.2122 15.5621 13.1022C15.773 12.9739 15.9838 12.9097 16.213 12.9097C16.3871 12.9097 16.5705 12.9464 16.7721 13.0289C16.9738 13.1114 17.1846 13.2305 17.4138 13.3864L20.448 15.5405C20.6863 15.7055 20.8513 15.898 20.9521 16.1272C21.0438 16.3564 21.0988 16.5855 21.0988 16.8422Z" stroke="#35353A" stroke-width="1.5" stroke-miterlimit="10" />
	<path opacity="0.4" d="M14.709 5.51107L16.5423 7.3444L20.209 3.67773" stroke="#35353A" stroke-width="1.5" stroke-linecap="round" stroke-linejoin="round" />
</svg>
