<svg width="18" height="17" viewBox="0 0 18 17" fill="none" xmlns="http://www.w3.org/2000/svg">
	<g clip-path="url(#clip0_2632_58236)">
		<path d="M17.5892 0.879587C17.5721 0.836756 17.553 0.794898 17.538 0.751579C17.2903 0.0331783 16.3662 -0.209209 15.7586 0.284327C15.7083 0.325212 15.6617 0.36999 15.6151 0.414282C13.4881 2.41276 11.3611 4.41075 9.2351 6.4102C9.18899 6.45401 9.15584 6.50998 9.11699 6.5606C9.09109 6.56596 9.06467 6.5718 9.03877 6.57715C9.00458 6.52361 8.98023 6.46034 8.93464 6.41751C6.7978 4.40637 4.65734 2.39865 2.52153 0.386539C2.16409 0.0497274 1.75175 -0.0622196 1.28035 0.0988855C0.564442 0.344193 0.343246 1.19255 0.842102 1.73524C0.892868 1.79024 0.948814 1.84086 1.00372 1.89246C3.12658 3.88753 5.24943 5.88211 7.37333 7.87621C7.41995 7.92002 7.47589 7.95603 7.57121 8.02953C7.48884 8.08258 7.42668 8.11032 7.38006 8.15364C5.23545 10.1657 3.09291 12.1788 0.950886 14.1924C0.479486 14.6348 0.446333 15.2432 0.862304 15.675C1.06226 15.8828 1.32231 15.9709 1.60256 16.0254H1.73569C2.14027 15.9787 2.42 15.747 2.69559 15.4871C4.77493 13.5251 6.86048 11.569 8.94449 9.61137C8.98645 9.57195 9.031 9.53398 9.11336 9.46049C9.15532 9.51841 9.18485 9.5773 9.23095 9.62062C11.3093 11.5758 13.3917 13.528 15.4669 15.4866C15.742 15.7465 16.0212 15.9792 16.4263 16.0249C16.4708 16.0249 16.5149 16.0249 16.5594 16.0249C16.7604 15.9475 16.9749 15.892 17.1582 15.7879C17.4048 15.6482 17.5053 15.399 17.5898 15.1503V14.8066C17.5079 14.4908 17.2919 14.262 17.0536 14.0386C14.9598 12.0776 12.8711 10.1117 10.7788 8.14926C10.7337 8.10692 10.6679 8.08355 10.5887 8.03878C10.6902 7.95798 10.74 7.92391 10.7829 7.88351C12.8778 5.91618 14.9706 3.94691 17.0686 1.9825C17.3038 1.76201 17.5126 1.53471 17.5903 1.22321V0.879587H17.5892Z" fill="black" />
	</g>
	<defs>
		<clipPath id="clip0_2632_58236">
			<rect width="17.017" height="16" fill="white" transform="matrix(1 0 0 -1 0.572266 16.0254)" />
		</clipPath>
	</defs>
</svg>
