<svg width="21" height="21" viewBox="0 0 21 21" fill="none" xmlns="http://www.w3.org/2000/svg">
	<path fill-rule="evenodd" clip-rule="evenodd" d="M6.25092 6.47564C6.54381 6.18275 7.01869 6.18275 7.31158 6.47564L14.3826 13.5467C14.6755 13.8396 14.6755 14.3145 14.3826 14.6074C14.0898 14.9003 13.6149 14.9003 13.322 14.6074L6.25092 7.5363C5.95803 7.24341 5.95803 6.76854 6.25092 6.47564Z" fill="black" />
	<path fill-rule="evenodd" clip-rule="evenodd" d="M14.3819 6.47564C14.6748 6.76854 14.6748 7.24341 14.3819 7.5363L7.31082 14.6074C7.01793 14.9003 6.54306 14.9003 6.25016 14.6074C5.95727 14.3145 5.95727 13.8396 6.25016 13.5467L13.3212 6.47564C13.6141 6.18275 14.089 6.18275 14.3819 6.47564Z" fill="black" />
</svg>
