<svg width="23" height="23" viewBox="0 0 23 23" fill="none" xmlns="http://www.w3.org/2000/svg">
	<path d="M6.79766 9.23092C3.05766 9.49676 3.06682 14.9142 6.79766 15.1801H15.6527C16.7252 15.1892 17.761 14.7859 18.5585 14.0618C21.1802 11.7701 19.7777 7.18674 16.3218 6.74674C15.0843 -0.71493 4.27683 2.11759 6.83433 9.23092" stroke="#35353A" stroke-width="1.5" stroke-miterlimit="10" stroke-linecap="round" stroke-linejoin="round" />
	<path opacity="0.4" d="M11.959 15.1797V17.9297" stroke="#35353A" stroke-width="1.5" stroke-miterlimit="10" stroke-linecap="round" stroke-linejoin="round" />
	<path d="M11.9583 21.5964C12.9709 21.5964 13.7917 20.7755 13.7917 19.763C13.7917 18.7505 12.9709 17.9297 11.9583 17.9297C10.9458 17.9297 10.125 18.7505 10.125 19.763C10.125 20.7755 10.9458 21.5964 11.9583 21.5964Z" stroke="#35353A" stroke-width="1.5" stroke-miterlimit="10" stroke-linecap="round" stroke-linejoin="round" />
	<path opacity="0.4" d="M17.4596 19.7637H13.793" stroke="#35353A" stroke-width="1.5" stroke-miterlimit="10" stroke-linecap="round" stroke-linejoin="round" />
	<path opacity="0.4" d="M10.1257 19.7637H6.45898" stroke="#35353A" stroke-width="1.5" stroke-miterlimit="10" stroke-linecap="round" stroke-linejoin="round" />
</svg>
