<svg width="21" height="21" viewBox="0 0 21 21" fill="none" xmlns="http://www.w3.org/2000/svg">
	<path d="M13.6491 11.4632V14.9632C13.6491 17.8799 12.4824 19.0466 9.56576 19.0466H6.06576C3.14909 19.0466 1.98242 17.8799 1.98242 14.9632V11.4632C1.98242 8.54655 3.14909 7.37988 6.06576 7.37988H9.56576C12.4824 7.37988 13.6491 8.54655 13.6491 11.4632Z" stroke="#35353A" stroke-width="1.46378" stroke-linecap="round" stroke-linejoin="round" />
	<path opacity="0.4" d="M18.6491 6.46322V9.96322C18.6491 12.8799 17.4824 14.0466 14.5658 14.0466H13.6491V11.4632C13.6491 8.54655 12.4824 7.37988 9.56576 7.37988H6.98242V6.46322C6.98242 3.54655 8.14909 2.37988 11.0658 2.37988H14.5658C17.4824 2.37988 18.6491 3.54655 18.6491 6.46322Z" stroke="#35353A" stroke-width="1.46378" stroke-linecap="round" stroke-linejoin="round" />
</svg>
