<svg width="25" height="25" viewBox="0 0 25 25" fill="none" xmlns="http://www.w3.org/2000/svg">
	<path opacity="0.4" d="M7.6744 11.5579C7.30981 11.5579 6.95677 11.5736 6.61914 11.6087V8.78584C6.61914 7.63788 6.66449 7.02665 6.92663 6.62514C7.07841 6.39266 7.55632 5.87402 9.53096 5.87402H15.1006C17.0739 5.87402 17.5546 6.39205 17.7091 6.62774C17.975 7.03309 18.0211 7.64377 18.0324 8.79318V11.6087C17.6948 11.5736 17.3417 11.5579 16.9771 11.5579C16.6144 11.5579 16.2035 11.574 15.7884 11.7154C15.378 11.8553 15.0742 12.0834 14.8866 12.2243C14.8807 12.2287 14.875 12.233 14.8694 12.2372L14.768 12.3133L14.6808 12.4053L13.7724 13.3635L13.7697 13.3664C13.3918 13.7672 12.8672 13.9934 12.3258 13.9934C11.7777 13.9934 11.2499 13.7627 10.8897 13.3748L10.8844 13.3691L10.8791 13.3635L9.97079 12.4053L9.88358 12.3133L9.78216 12.2372C9.77654 12.233 9.7708 12.2287 9.76495 12.2243C9.57733 12.0834 9.2735 11.8553 8.86314 11.7154C8.44801 11.574 8.03712 11.5579 7.6744 11.5579Z" fill="#00B360" stroke="#00B360" stroke-width="3" />
	<mask id="path-2-inside-1_2906_3998" fill="white">
		<path d="M14.5858 7.16904C14.3263 6.90952 13.8971 6.90952 13.6376 7.16904L12.9888 7.81784V3.04669C12.9888 2.67737 12.6794 2.37793 12.31 2.37793C11.9407 2.37793 11.6313 2.67737 11.6313 3.04669V7.80786L10.9925 7.16904C10.733 6.90952 10.3038 6.90952 10.0442 7.16904C9.78473 7.42856 9.78473 7.85776 10.0442 8.11728L11.8409 9.91395C11.8509 9.92393 11.8509 9.92393 11.8609 9.92393C11.9208 9.97384 11.9807 10.0237 12.0605 10.0537C12.1404 10.0836 12.2302 10.1036 12.32 10.1036C12.4099 10.1036 12.4897 10.0836 12.5795 10.0537C12.6594 10.0237 12.7392 9.97384 12.7991 9.90397L14.5958 8.1073C14.8453 7.85776 14.8453 7.42856 14.5858 7.16904Z" />
	</mask>
	<path d="M14.5858 7.16904C14.3263 6.90952 13.8971 6.90952 13.6376 7.16904L12.9888 7.81784V3.04669C12.9888 2.67737 12.6794 2.37793 12.31 2.37793C11.9407 2.37793 11.6313 2.67737 11.6313 3.04669V7.80786L10.9925 7.16904C10.733 6.90952 10.3038 6.90952 10.0442 7.16904C9.78473 7.42856 9.78473 7.85776 10.0442 8.11728L11.8409 9.91395C11.8509 9.92393 11.8509 9.92393 11.8609 9.92393C11.9208 9.97384 11.9807 10.0237 12.0605 10.0537C12.1404 10.0836 12.2302 10.1036 12.32 10.1036C12.4099 10.1036 12.4897 10.0836 12.5795 10.0537C12.6594 10.0237 12.7392 9.97384 12.7991 9.90397L14.5958 8.1073C14.8453 7.85776 14.8453 7.42856 14.5858 7.16904Z" fill="#00B360" />
	<path d="M12.9888 7.81784H9.98879V15.0605L15.1101 9.93916L12.9888 7.81784ZM11.6313 7.80786L9.50998 9.92918L14.6313 15.0505V7.80786H11.6313ZM10.9925 7.16904L13.1138 5.04772L13.1138 5.04772L10.9925 7.16904ZM10.0442 8.11728L12.1656 5.99596H12.1656L10.0442 8.11728ZM11.8409 9.91395L9.7196 12.0353L11.8409 9.91395ZM11.8609 9.92393L13.7814 7.61927L12.947 6.92393H11.8609V9.92393ZM12.5795 10.0537L13.5282 12.8997L13.5809 12.8822L13.6329 12.8627L12.5795 10.0537ZM12.7991 9.90397L10.6778 7.78265L10.5963 7.86411L10.5214 7.95159L12.7991 9.90397ZM14.5958 8.1073L16.7171 10.2286L14.5958 8.1073ZM16.7071 5.04772C15.2761 3.61663 12.9474 3.61663 11.5163 5.04772L15.7589 9.29036C14.8468 10.2024 13.3766 10.2024 12.4645 9.29036L16.7071 5.04772ZM11.5163 5.04772L10.8675 5.69652L15.1101 9.93916L15.7589 9.29036L11.5163 5.04772ZM15.9888 7.81784V3.04669H9.98879V7.81784H15.9888ZM15.9888 3.04669C15.9888 0.963093 14.2782 -0.62207 12.31 -0.62207V5.37793C11.0805 5.37793 9.98879 4.39166 9.98879 3.04669H15.9888ZM12.31 -0.62207C10.3419 -0.62207 8.6313 0.963093 8.6313 3.04669H14.6313C14.6313 4.39166 13.5396 5.37793 12.31 5.37793V-0.62207ZM8.6313 3.04669V7.80786H14.6313V3.04669H8.6313ZM13.7526 5.68654L13.1138 5.04772L8.87117 9.29036L9.50998 9.92918L13.7526 5.68654ZM13.1138 5.04772C11.6827 3.61663 9.35402 3.61663 7.92293 5.04772L12.1656 9.29036C11.2535 10.2024 9.78322 10.2024 8.87117 9.29036L13.1138 5.04772ZM7.92293 5.04772C6.49184 6.47881 6.49184 8.80751 7.92293 10.2386L12.1656 5.99596C13.0776 6.90802 13.0776 8.37831 12.1656 9.29036L7.92293 5.04772ZM7.92293 10.2386L9.7196 12.0353L13.9622 7.79263L12.1656 5.99596L7.92293 10.2386ZM9.7196 12.0353C9.71968 12.0354 9.72272 12.0384 9.72607 12.0417C9.72958 12.0452 9.73619 12.0518 9.74445 12.0599C9.75834 12.0735 9.79356 12.1079 9.83996 12.1496C9.92035 12.222 10.1548 12.4287 10.5093 12.606C10.915 12.8088 11.29 12.8822 11.5564 12.9089C11.6692 12.9202 11.7585 12.9225 11.7976 12.9233C11.8194 12.9237 11.8369 12.9239 11.8458 12.9239C11.8507 12.9239 11.8546 12.9239 11.8568 12.9239C11.859 12.9239 11.8609 12.9239 11.8609 12.9239V6.92393C11.8029 6.92393 11.9725 6.92057 12.1535 6.93867C12.4167 6.96499 12.7893 7.03777 13.1925 7.2394C13.5445 7.41538 13.7765 7.62028 13.8537 7.68982C13.9246 7.7536 13.9875 7.81784 13.9622 7.79263L9.7196 12.0353ZM9.94033 12.2286C9.9566 12.2422 10.3825 12.6284 11.0071 12.8627L13.1139 7.2447C13.3617 7.33762 13.5464 7.45049 13.6608 7.52971C13.7565 7.59593 13.8277 7.6578 13.7814 7.61927L9.94033 12.2286ZM11.0071 12.8627C11.3519 12.9919 11.8009 13.1036 12.32 13.1036V7.1036C12.6595 7.1036 12.9289 7.17532 13.1139 7.2447L11.0071 12.8627ZM12.32 13.1036C12.8809 13.1036 13.3156 12.9706 13.5282 12.8997L11.6309 7.20764C11.6638 7.19666 11.9388 7.1036 12.32 7.1036V13.1036ZM13.6329 12.8627C14.0959 12.689 14.6299 12.3778 15.0769 11.8563L10.5214 7.95159C10.8486 7.56985 11.2228 7.35845 11.5262 7.2447L13.6329 12.8627ZM14.9205 12.0253L16.7171 10.2286L12.4745 5.98598L10.6778 7.78265L14.9205 12.0253ZM16.7171 10.2286C18.1673 8.77842 18.1089 6.44951 16.7071 5.04772L12.4645 9.29036C11.5818 8.40761 11.5234 6.93711 12.4745 5.98598L16.7171 10.2286Z" fill="#00B360" mask="url(#path-2-inside-1_2906_3998)" />
	<path d="M14.9247 14.4755L15.8241 13.5194C16.0657 13.339 16.1597 13.2844 16.2537 13.248C16.342 13.2137 16.5246 13.1611 16.9563 13.1611C17.6553 13.1611 18.1902 13.2311 18.6069 13.3403C19.3555 13.5425 19.56 13.8546 19.6744 14.1468C19.8493 14.5936 19.8681 15.1795 19.8681 16.0729V17.0012C19.8681 18.5364 19.4804 19.4252 18.9662 19.9394C18.452 20.4536 17.5632 20.8413 16.028 20.8413H8.60181C6.16217 20.8413 5.45252 20.1999 5.18504 19.7904C4.80716 19.212 4.76172 18.3692 4.76172 17.0012V16.0729C4.76172 15.1795 4.78058 14.5936 4.95546 14.1468C5.06983 13.8546 5.27437 13.5425 6.02298 13.3403C6.43961 13.2311 6.97458 13.1611 7.67353 13.1611C8.10523 13.1611 8.2878 13.2137 8.37613 13.248C8.47035 13.2845 8.56456 13.3393 8.80737 13.5206L9.70557 14.466C11.1052 15.963 13.5377 15.9319 14.9183 14.4823L14.9183 14.4823L14.9247 14.4755ZM9.98924 20.248H14.6406C15.8624 20.248 16.8293 19.2529 16.8293 18.0493C16.8293 16.8457 15.8624 15.8506 14.6406 15.8506H9.98924C8.76748 15.8506 7.80051 16.8457 7.80051 18.0493C7.80051 19.2529 8.76748 20.248 9.98924 20.248Z" fill="#00B360" stroke="#00B360" stroke-width="3" />
	<g opacity="0.4">
		<mask id="path-5-inside-2_2906_3998" fill="white">
			<path d="M15.3296 18.0493C15.3296 18.4386 15.0202 18.748 14.6409 18.748H9.9895C9.61021 18.748 9.30078 18.4386 9.30078 18.0493C9.30078 17.66 9.61021 17.3506 9.9895 17.3506H14.6409C15.0202 17.3506 15.3296 17.66 15.3296 18.0493Z" />
		</mask>
		<path d="M15.3296 18.0493C15.3296 18.4386 15.0202 18.748 14.6409 18.748H9.9895C9.61021 18.748 9.30078 18.4386 9.30078 18.0493C9.30078 17.66 9.61021 17.3506 9.9895 17.3506H14.6409C15.0202 17.3506 15.3296 17.66 15.3296 18.0493Z" fill="#00B360" />
		<path d="M12.3296 18.0493C12.3296 16.8099 13.3353 15.748 14.6409 15.748V21.748C16.7051 21.748 18.3296 20.0672 18.3296 18.0493H12.3296ZM14.6409 15.748H9.9895V21.748H14.6409V15.748ZM9.9895 15.748C11.2951 15.748 12.3008 16.8099 12.3008 18.0493H6.30078C6.30078 20.0672 7.92529 21.748 9.9895 21.748V15.748ZM12.3008 18.0493C12.3008 19.2887 11.2951 20.3506 9.9895 20.3506V14.3506C7.92528 14.3506 6.30078 16.0314 6.30078 18.0493H12.3008ZM9.9895 20.3506H14.6409V14.3506H9.9895V20.3506ZM14.6409 20.3506C13.3352 20.3506 12.3296 19.2887 12.3296 18.0493H18.3296C18.3296 16.0314 16.7051 14.3506 14.6409 14.3506V20.3506Z" fill="#00B360" mask="url(#path-5-inside-2_2906_3998)" />
	</g>
</svg>
