<svg width="21" height="21" viewBox="0 0 21 21" fill="none" xmlns="http://www.w3.org/2000/svg">
	<path d="M12.2264 8.85449L8.00977 13.0712C7.4681 12.5295 7.13477 11.7878 7.13477 10.9628C7.13477 9.31283 8.4681 7.97949 10.1181 7.97949C10.9431 7.97949 11.6848 8.31283 12.2264 8.85449Z" stroke="#35353A" stroke-width="1.5" stroke-linecap="round" stroke-linejoin="round" />
	<path d="M14.9671 5.77129C13.5087 4.67129 11.8421 4.07129 10.1171 4.07129C7.17539 4.07129 4.43372 5.80462 2.52539 8.80462C1.77539 9.97962 1.77539 11.9546 2.52539 13.1296C3.18372 14.163 3.95039 15.0546 4.78372 15.7713" stroke="#35353A" stroke-width="1.5" stroke-linecap="round" stroke-linejoin="round" />
	<path opacity="0.4" d="M7.13477 17.238C8.08477 17.638 9.0931 17.8546 10.1181 17.8546C13.0598 17.8546 15.8014 16.1213 17.7098 13.1213C18.4598 11.9463 18.4598 9.97129 17.7098 8.79629C17.4348 8.36296 17.1348 7.95462 16.8264 7.57129" stroke="#35353A" stroke-width="1.5" stroke-linecap="round" stroke-linejoin="round" />
	<path opacity="0.4" d="M13.0414 11.5459C12.8247 12.7209 11.8664 13.6792 10.6914 13.8959" stroke="#35353A" stroke-width="1.5" stroke-linecap="round" stroke-linejoin="round" />
	<path d="M8.0082 13.0713L1.7832 19.2963" stroke="#35353A" stroke-width="1.5" stroke-linecap="round" stroke-linejoin="round" />
	<path d="M18.4496 2.62988L12.2246 8.85488" stroke="#35353A" stroke-width="1.5" stroke-linecap="round" stroke-linejoin="round" />
</svg>
