<svg width="21" height="21" viewBox="0 0 21 21" fill="none" xmlns="http://www.w3.org/2000/svg">
	<path opacity="0.4" d="M13.1014 10.9628C13.1014 12.6128 11.7681 13.9462 10.1181 13.9462C8.4681 13.9462 7.13477 12.6128 7.13477 10.9628C7.13477 9.31283 8.4681 7.97949 10.1181 7.97949C11.7681 7.97949 13.1014 9.31283 13.1014 10.9628Z" stroke="#35353A" stroke-width="1.5" stroke-linecap="round" stroke-linejoin="round" />
	<path d="M10.1171 17.8542C13.0587 17.8542 15.8004 16.1208 17.7087 13.1208C18.4587 11.9458 18.4587 9.97083 17.7087 8.79583C15.8004 5.79583 13.0587 4.0625 10.1171 4.0625C7.17539 4.0625 4.43372 5.79583 2.52539 8.79583C1.77539 9.97083 1.77539 11.9458 2.52539 13.1208C4.43372 16.1208 7.17539 17.8542 10.1171 17.8542Z" stroke="#35353A" stroke-width="1.5" stroke-linecap="round" stroke-linejoin="round" />
</svg>
