<svg width="23" height="23" viewBox="0 0 23 23" fill="none" xmlns="http://www.w3.org/2000/svg">
	<path d="M5.96647 17.0309V14.3543C5.96647 13.4651 6.66314 12.6676 7.65314 12.6676C8.5423 12.6676 9.3398 13.3643 9.3398 14.3543V16.9301C9.3398 18.7176 7.8548 20.2026 6.0673 20.2026C4.2798 20.2026 2.7948 18.7084 2.7948 16.9301V11.2834C2.69397 6.13177 6.76397 1.96094 11.9156 1.96094C17.0673 1.96094 21.1281 6.13177 21.1281 11.1826V16.8293C21.1281 18.6168 19.6431 20.1018 17.8556 20.1018C16.0681 20.1018 14.5831 18.6168 14.5831 16.8293V14.2534C14.5831 13.3643 15.2798 12.5668 16.2698 12.5668C17.159 12.5668 17.9565 13.2634 17.9565 14.2534V17.0309" stroke="#263658" stroke-width="1.5" stroke-linecap="round" stroke-linejoin="round" />
</svg>
