<svg width="27" height="27" viewBox="0 0 27 27" fill="none" xmlns="http://www.w3.org/2000/svg">
	<path d="M11.0878 3.16928L4.56617 7.42678C2.47534 8.79178 2.47534 11.8468 4.56617 13.2118L11.0878 17.4693C12.2578 18.2384 14.1862 18.2384 15.3562 17.4693L21.8453 13.2118C23.9253 11.8468 23.9253 8.80261 21.8453 7.43761L15.3562 3.18011C14.1862 2.40011 12.2578 2.40011 11.0878 3.16928Z" stroke="white" stroke-width="2.70366" stroke-linecap="round" stroke-linejoin="round" />
	<path opacity="0.4" d="M6.2999 14.5986L6.28906 19.6795C6.28906 21.0553 7.35073 22.5286 8.65073 22.962L12.1066 24.1103C12.7024 24.3053 13.6882 24.3053 14.2949 24.1103L17.7507 22.962C19.0507 22.5286 20.1124 21.0553 20.1124 19.6795V14.6528" stroke="white" stroke-width="2.70366" stroke-linecap="round" stroke-linejoin="round" />
	<path opacity="0.4" d="M23.3848 16.6787V10.1787" stroke="white" stroke-width="2.70366" stroke-linecap="round" stroke-linejoin="round" />
</svg>
