<svg width="23" height="23" viewBox="0 0 23 23" fill="none" xmlns="http://www.w3.org/2000/svg">
	<path d="M20.126 11.1207C20.126 15.6032 16.8719 19.8015 12.426 21.0298C12.1235 21.1123 11.7935 21.1123 11.491 21.0298C7.04518 19.8015 3.79102 15.6032 3.79102 11.1207V7.09651C3.79102 6.34484 4.35936 5.49234 5.0652 5.20817L10.171 3.1182C11.3168 2.6507 12.6093 2.6507 13.7552 3.1182L18.861 5.20817C19.5577 5.49234 20.1352 6.34484 20.1352 7.09651L20.126 11.1207Z" stroke="#35353A" stroke-width="1.5" stroke-linecap="round" stroke-linejoin="round" />
	<g opacity="0.4">
		<path d="M11.9583 12.3854C12.9709 12.3854 13.7917 11.5646 13.7917 10.5521C13.7917 9.53956 12.9709 8.71875 11.9583 8.71875C10.9458 8.71875 10.125 9.53956 10.125 10.5521C10.125 11.5646 10.9458 12.3854 11.9583 12.3854Z" stroke="#35353A" stroke-width="1.5" stroke-miterlimit="10" stroke-linecap="round" stroke-linejoin="round" />
		<path d="M11.959 12.3848V15.1348" stroke="#35353A" stroke-width="1.5" stroke-miterlimit="10" stroke-linecap="round" stroke-linejoin="round" />
	</g>
</svg>
