<svg width="23" height="23" viewBox="0 0 23 23" fill="none" xmlns="http://www.w3.org/2000/svg">
	<path d="M17.1129 12.5342V13.8202H19.682V20.2595H13.256V17.7029H11.9635V16.4014L11.957 16.4074H13.2341V15.1123H11.957L11.9635 15.1183V13.834H15.8307V12.5342L15.8242 12.5402C16.2561 12.5402 16.6875 12.5402 17.1193 12.5402L17.1129 12.5342ZM18.3959 15.1304H14.5554V18.9713H18.3959V15.1304Z" fill="#35353A" />
	<path d="M4.2293 15.1187V13.8327H5.50289V12.5432H2.95312V11.2627H9.37867C9.37867 11.6881 9.37867 12.1143 9.37867 12.5406L9.38512 12.5346H6.81859V16.4078H8.09606L8.08961 16.4018V17.6887H6.81559V18.9661H9.37523V17.7067H10.6587V18.976H11.9469V20.2616H5.52523V18.979H4.22328L4.2293 18.985V17.6908L4.22285 17.6968H5.50031V15.1127H4.22285L4.2293 15.1187Z" fill="#35353A" />
	<path d="M10.6686 4.80102C10.6686 5.23242 10.6686 5.66383 10.6686 6.0948L10.6746 6.08879H9.38852V9.94695H2.94922V3.52441H9.37305V4.80703H10.675L10.669 4.80102H10.6686ZM8.08527 4.81434H4.23957V8.65617H8.08527V4.81434Z" fill="#35353A" />
	<path d="M15.8308 11.2506V9.96414H13.2617V3.52441H19.6774V9.9491H17.1134V11.2506L17.1199 11.2446H15.8248L15.8312 11.2506H15.8308ZM14.5478 8.65445H18.3883V4.81391H14.5478V8.65445Z" fill="#35353A" />
	<path d="M10.6744 12.5394V9.97461H11.9553V11.2512C13.262 11.2512 14.5463 11.2512 15.8302 11.2512L15.8238 11.2452V12.5403L15.8302 12.5343C14.1093 12.5343 12.3889 12.5338 10.668 12.5334L10.674 12.5394H10.6744Z" fill="#35353A" />
	<path d="M10.668 6.09391H11.9454V8.65527H10.674C10.674 7.79805 10.674 6.94297 10.674 6.08789L10.668 6.09391Z" fill="#35353A" />
	<path d="M17.1133 11.2511H19.6794V12.5342C18.8239 12.5342 17.9688 12.5342 17.1133 12.5342L17.1197 12.5402C17.1197 12.1084 17.1197 11.677 17.1197 11.2451L17.1133 11.2511Z" fill="#35353A" />
	<path d="M9.37891 13.8232V16.4014C8.94277 16.4014 8.51652 16.4014 8.08984 16.4014L8.09629 16.4074V13.8293H9.38535L9.37891 13.8232Z" fill="#35353A" />
	<path d="M4.23059 17.6904H2.95312V15.1183C3.37852 15.1183 3.80434 15.1183 4.23059 15.1183L4.22414 15.1123V17.6964L4.23059 17.6904Z" fill="#35353A" />
	<path d="M10.674 4.80633V3.5293H11.9463V4.80031C11.5192 4.80031 11.0938 4.80031 10.668 4.80031L10.674 4.80633Z" fill="#35353A" />
	<path d="M10.6688 12.5332V13.8231C10.2323 13.8231 9.80559 13.8231 9.37891 13.8231L9.38535 13.8291V12.5341L9.37891 12.5401C9.81074 12.5401 10.243 12.5401 10.6748 12.5396L10.6688 12.5336V12.5332Z" fill="#35353A" />
	<path d="M11.9645 16.4014H10.6875V15.1183C11.1129 15.1183 11.5387 15.1183 11.9645 15.1183L11.9581 15.1123V16.4074L11.9645 16.4014Z" fill="#35353A" />
	<path d="M4.22348 18.9785V20.2555H2.95117V18.9845C3.37828 18.9845 3.80367 18.9845 4.22949 18.9845L4.22348 18.9785Z" fill="#35353A" />
	<path d="M15.8379 17.678V16.416H17.1003V17.678H15.8379Z" fill="#35353A" />
	<path d="M5.52734 6.10254H6.78848V7.36711H5.52734V6.10254Z" fill="#35353A" />
	<path d="M17.1023 7.3718H15.8398V6.10938H17.1023V7.3718Z" fill="#35353A" />
</svg>
