<svg width="21" height="21" viewBox="0 0 21 21" fill="none" xmlns="http://www.w3.org/2000/svg">
	<path d="M7.94466 19.0913L5.86133 19.0913C3.78633 19.0913 2.11133 17.4163 2.11133 15.3413L2.11133 13.258" stroke="#263658" stroke-width="1.5" stroke-linecap="round" stroke-linejoin="round" />
	<path d="M2.11133 8.25781L2.11133 6.17448C2.11133 4.09948 3.78633 2.42448 5.86133 2.42448L7.94466 2.42448" stroke="#263658" stroke-width="1.5" stroke-linecap="round" stroke-linejoin="round" />
	<path d="M13.7793 2.42432L15.0293 2.42432C17.1043 2.42432 18.7793 4.09932 18.7793 6.17432L18.7793 7.42432" stroke="#263658" stroke-width="1.5" stroke-linecap="round" stroke-linejoin="round" />
	<path d="M18.7786 13.258L18.7786 15.3413C18.7786 17.4163 17.1036 19.0913 15.0286 19.0913L12.9453 19.0913" stroke="#263658" stroke-width="1.5" stroke-linecap="round" stroke-linejoin="round" />
	<g opacity="0.4">
		<path d="M8.36133 6.59147L12.528 6.59147C14.1947 6.59147 15.028 7.4248 15.028 9.09147L15.028 12.4248C15.028 14.0915 14.1947 14.9248 12.528 14.9248L8.36133 14.9248C6.69466 14.9248 5.86133 14.0915 5.86133 12.4248L5.86133 9.09147C5.86133 7.4248 6.69466 6.59147 8.36133 6.59147Z" stroke="#263658" stroke-width="1.5" stroke-linecap="round" stroke-linejoin="round" />
		<path d="M10.4453 4.92464L10.4453 16.5913" stroke="#263658" stroke-width="1.5" stroke-linecap="round" stroke-linejoin="round" />
	</g>
</svg>
