<svg width="17" height="17" viewBox="0 0 17 17" fill="none" xmlns="http://www.w3.org/2000/svg">
	<path d="M6.89307 13.3125C8.2793 13.3125 9.55762 12.8643 10.6035 12.1172L14.5381 16.0518C14.7207 16.2344 14.9614 16.3257 15.2188 16.3257C15.7583 16.3257 16.1401 15.9106 16.1401 15.3794C16.1401 15.1304 16.0571 14.8896 15.8745 14.7153L11.9648 10.7974C12.7866 9.71826 13.2764 8.38184 13.2764 6.9292C13.2764 3.41797 10.4043 0.545898 6.89307 0.545898C3.39014 0.545898 0.509766 3.40967 0.509766 6.9292C0.509766 10.4404 3.38184 13.3125 6.89307 13.3125ZM6.89307 11.9346C4.15381 11.9346 1.8877 9.66846 1.8877 6.9292C1.8877 4.18994 4.15381 1.92383 6.89307 1.92383C9.63232 1.92383 11.8984 4.18994 11.8984 6.9292C11.8984 9.66846 9.63232 11.9346 6.89307 11.9346Z" fill="#35353A" />
</svg>
