<svg width="23" height="23" viewBox="0 0 23 23" fill="none" xmlns="http://www.w3.org/2000/svg">
	<path opacity="0.34" d="M11.9609 13.832C13.4797 13.832 14.7109 12.6008 14.7109 11.082C14.7109 9.56325 13.4797 8.33203 11.9609 8.33203C10.4422 8.33203 9.21094 9.56325 9.21094 11.082C9.21094 12.6008 10.4422 13.832 11.9609 13.832Z" stroke="#263658" stroke-width="1.5" stroke-miterlimit="10" stroke-linecap="round" stroke-linejoin="round" />
	<path d="M2.79492 11.8887V10.2753C2.79492 9.32201 3.57409 8.53368 4.53659 8.53368C6.19575 8.53368 6.87409 7.36035 6.03992 5.92118C5.56325 5.09618 5.84742 4.02368 6.68159 3.54701L8.26742 2.63951C8.99159 2.20868 9.92659 2.46535 10.3574 3.18951L10.4583 3.36368C11.2833 4.80285 12.6399 4.80285 13.4741 3.36368L13.5749 3.18951C14.0058 2.46535 14.9408 2.20868 15.6649 2.63951L17.2508 3.54701C18.0849 4.02368 18.3691 5.09618 17.8924 5.92118C17.0583 7.36035 17.7366 8.53368 19.3958 8.53368C20.3491 8.53368 21.1374 9.31285 21.1374 10.2753V11.8887C21.1374 12.842 20.3583 13.6303 19.3958 13.6303C17.7366 13.6303 17.0583 14.8037 17.8924 16.2428C18.3691 17.077 18.0849 18.1403 17.2508 18.617L15.6649 19.5245C14.9408 19.9553 14.0058 19.6987 13.5749 18.9745L13.4741 18.8003C12.6491 17.3612 11.2924 17.3612 10.4583 18.8003L10.3574 18.9745C9.92659 19.6987 8.99159 19.9553 8.26742 19.5245L6.68159 18.617C5.84742 18.1403 5.56325 17.0678 6.03992 16.2428C6.87409 14.8037 6.19575 13.6303 4.53659 13.6303C3.57409 13.6303 2.79492 12.842 2.79492 11.8887Z" stroke="#263658" stroke-width="1.5" stroke-miterlimit="10" stroke-linecap="round" stroke-linejoin="round" />
</svg>
