<svg width="24" height="25" viewBox="0 0 24 25" fill="none" xmlns="http://www.w3.org/2000/svg">
	<path opacity="0.4" d="M8.24236 21.5689L8.24102 21.5689C6.56892 21.5735 5.2931 21.0791 4.43577 20.2228C3.57834 19.3665 3.08168 18.0904 3.08168 16.4179V8.27068C3.08168 6.59827 3.5783 5.322 4.43599 4.46431C5.29368 3.60662 6.56995 3.11 8.24236 3.11H16.3799C18.0575 3.11 19.3362 3.60683 20.195 4.46453C21.0537 5.32215 21.5503 6.59828 21.5503 8.27068V16.4082C21.5503 18.0806 21.0536 19.3569 20.196 20.2146C19.3383 21.0722 18.062 21.5689 16.3896 21.5689L8.24236 21.5689Z" fill="#FFCC00" stroke="#FFCC00" stroke-width="0.975854" />
	<path d="M17.252 13.8314L17.252 13.8314L17.2608 13.8352C17.3193 13.8598 17.3701 13.9083 17.4029 13.9823C17.4228 14.0269 17.4272 14.0796 17.4008 14.1448C17.3811 14.188 17.3641 14.2107 17.3482 14.2266L14.4802 17.0946C14.4307 17.1441 14.3722 17.1656 14.3099 17.1656C14.2476 17.1656 14.1891 17.1441 14.1396 17.0946C14.0482 17.0032 14.0482 16.8455 14.1396 16.7541L15.7632 15.1305L16.5962 14.2976H15.4182H7.45573C7.32659 14.2976 7.21449 14.1855 7.21449 14.0563C7.21449 13.9272 7.32659 13.8151 7.45573 13.8151H17.1682C17.2018 13.8151 17.231 13.822 17.252 13.8314Z" fill="#FFCC00" stroke="#FFCC00" stroke-width="0.975854" />
	<path d="M7.38167 10.8588L7.38171 10.8587L7.37285 10.855C7.31439 10.8304 7.26363 10.7818 7.23077 10.7079C7.21092 10.6633 7.20652 10.6105 7.2329 10.5453C7.25254 10.5022 7.26962 10.4794 7.28547 10.4636L10.1535 7.59554C10.2449 7.50414 10.4026 7.50414 10.494 7.59554C10.5854 7.68693 10.5854 7.84466 10.494 7.93606L10.8391 8.28108L10.494 7.93606L8.87044 9.55967L8.03749 10.3926H9.21545H17.178C17.3071 10.3926 17.4192 10.5047 17.4192 10.6339C17.4192 10.763 17.3071 10.8751 17.178 10.8751H7.45573C7.4293 10.8751 7.40913 10.871 7.38167 10.8588Z" fill="#FFCC00" stroke="#FFCC00" stroke-width="0.975854" />
</svg>
