<svg width="41" height="41" viewBox="0 0 41 41" fill="none" xmlns="http://www.w3.org/2000/svg">
	<path opacity="0.4" d="M13.3337 36.3925L13.3312 36.3925C10.4777 36.4003 8.3087 35.5569 6.85392 34.104C5.39895 32.6508 4.55161 30.4813 4.55161 27.627V13.6604C4.55161 10.8063 5.39887 8.63642 6.85432 7.18098C8.30976 5.72553 10.4796 4.87827 13.3337 4.87827H27.2837C30.1468 4.87827 32.3208 5.72592 33.7781 7.18137C35.2353 8.6367 36.0825 10.8063 36.0825 13.6604V27.6104C36.0825 30.4645 35.2352 32.6343 33.7798 34.0898C32.3244 35.5452 30.1545 36.3925 27.3004 36.3925L13.3337 36.3925Z" fill="#8C8C99" stroke="#8C8C99" stroke-width="1.80244" />
	<path d="M15.494 26.5978L17.0325 28.1363V25.9605V12.3105C17.0325 12.1171 17.1868 11.9618 17.3812 11.9618C17.5604 11.9618 17.7375 12.1213 17.7467 12.3248V28.9605C17.7467 29.0096 17.7365 29.0506 17.7244 29.0779L17.7208 29.086L17.7173 29.0942C17.6837 29.1741 17.6178 29.2469 17.5127 29.2971C17.4439 29.3232 17.4108 29.326 17.3812 29.326C17.3322 29.326 17.2912 29.3158 17.2639 29.3037L16.8979 30.1272L17.2639 29.3037C17.1902 29.2709 17.1565 29.2446 17.1352 29.2233L12.2185 24.3066C12.0871 24.1752 12.0871 23.9459 12.2185 23.8145C12.3499 23.6831 12.5793 23.6831 12.7107 23.8145L15.494 26.5978Z" fill="#35353A" stroke="#35353A" stroke-width="1.80244" />
	<path d="M22.9216 12.2099L22.9252 12.2018L22.9286 12.1936C22.9638 12.1101 23.0341 12.0345 23.1474 11.9841C23.2144 11.9543 23.2984 11.9543 23.3654 11.9841C23.4391 12.0169 23.4728 12.0432 23.4941 12.0645L28.4108 16.9811C28.5422 17.1125 28.5422 17.3419 28.4108 17.4733C28.3387 17.5454 28.2553 17.576 28.1647 17.576C28.0742 17.576 27.9907 17.5454 27.9186 17.4733L25.1353 14.69L23.5968 13.1515V15.3272V28.9772C23.5968 29.1628 23.4337 29.326 23.248 29.326C23.0624 29.326 22.8993 29.1628 22.8993 28.9772V12.3105C22.8993 12.2746 22.9042 12.249 22.9216 12.2099Z" fill="#35353A" stroke="#35353A" stroke-width="1.80244" />
</svg>
