<svg width="15" height="18" viewBox="0 0 15 18" fill="none" xmlns="http://www.w3.org/2000/svg">
<path fill-rule="evenodd" clip-rule="evenodd" d="M3.50195 7.49866C3.15695 7.49866 2.87695 7.21866 2.87695 6.87366V5.08449C2.88779 2.63616 4.86779 0.666992 7.29529 0.666992H7.31195C9.19195 0.666992 10.8703 1.86116 11.4861 3.63949C11.5995 3.96533 11.4261 4.32116 11.0995 4.43449C10.7736 4.54866 10.4178 4.37449 10.3045 4.04783C9.86362 2.77366 8.65945 1.91699 7.30945 1.91699H7.29779C5.55445 1.91699 4.13445 3.32866 4.12695 5.07033V6.87366C4.12695 7.21866 3.84695 7.49866 3.50195 7.49866Z" fill="black"/>
<path fill-rule="evenodd" clip-rule="evenodd" d="M4.11898 7.43945C2.72065 7.43945 1.58398 8.57695 1.58398 9.97529V13.5486C1.58398 14.947 2.72065 16.0845 4.11898 16.0845H10.4873C11.8848 16.0845 13.0223 14.947 13.0223 13.5486V9.97529C13.0223 8.57695 11.8848 7.43945 10.4873 7.43945H4.11898ZM10.4873 17.3345H4.11898C2.03148 17.3345 0.333984 15.6361 0.333984 13.5486V9.97529C0.333984 7.88779 2.03148 6.18945 4.11898 6.18945H10.4873C12.574 6.18945 14.2723 7.88779 14.2723 9.97529V13.5486C14.2723 15.6361 12.574 17.3345 10.4873 17.3345Z" fill="black"/>
<path fill-rule="evenodd" clip-rule="evenodd" d="M7.30273 13.3126C6.95773 13.3126 6.67773 13.0326 6.67773 12.6876V10.8359C6.67773 10.4909 6.95773 10.2109 7.30273 10.2109C7.64773 10.2109 7.92773 10.4909 7.92773 10.8359V12.6876C7.92773 13.0326 7.64773 13.3126 7.30273 13.3126Z" fill="black"/>
</svg>
