<svg width="21" height="20" viewBox="0 0 21 20" fill="none" xmlns="http://www.w3.org/2000/svg">
	<path fill-rule="evenodd" clip-rule="evenodd" d="M7.38477 8.49866C7.03977 8.49866 6.75977 8.21866 6.75977 7.87366V6.08449C6.7706 3.63616 8.7506 1.66699 11.1781 1.66699H11.1948C13.0748 1.66699 14.7531 2.86116 15.3689 4.63949C15.4823 4.96533 15.3089 5.32116 14.9823 5.43449C14.6564 5.54866 14.3006 5.37449 14.1873 5.04783C13.7464 3.77366 12.5423 2.91699 11.1923 2.91699H11.1806C9.43727 2.91699 8.01727 4.32866 8.00977 6.07033V7.87366C8.00977 8.21866 7.72977 8.49866 7.38477 8.49866Z" fill="black" />
	<path fill-rule="evenodd" clip-rule="evenodd" d="M8.0018 8.43945C6.60346 8.43945 5.4668 9.57695 5.4668 10.9753V14.5486C5.4668 15.947 6.60346 17.0845 8.0018 17.0845H14.3701C15.7676 17.0845 16.9051 15.947 16.9051 14.5486V10.9753C16.9051 9.57695 15.7676 8.43945 14.3701 8.43945H8.0018ZM14.3701 18.3345H8.0018C5.9143 18.3345 4.2168 16.6361 4.2168 14.5486V10.9753C4.2168 8.88779 5.9143 7.18945 8.0018 7.18945H14.3701C16.4568 7.18945 18.1551 8.88779 18.1551 10.9753V14.5486C18.1551 16.6361 16.4568 18.3345 14.3701 18.3345Z" fill="black" />
	<path fill-rule="evenodd" clip-rule="evenodd" d="M11.1855 14.3126C10.8405 14.3126 10.5605 14.0326 10.5605 13.6876V11.8359C10.5605 11.4909 10.8405 11.2109 11.1855 11.2109C11.5305 11.2109 11.8105 11.4909 11.8105 11.8359V13.6876C11.8105 14.0326 11.5305 14.3126 11.1855 14.3126Z" fill="black" />
</svg>
