<svg xmlns="http://www.w3.org/2000/svg" width="25" height="26" viewBox="0 0 25 26" fill="none">
	<path opacity="0.4" d="M16.5832 2.71484H8.05823C4.35082 2.71484 2.14062 4.92503 2.14062 8.63243V17.1574C2.14062 20.8648 4.35082 23.075 8.05823 23.075H16.5832C20.2906 23.075 22.5008 20.8648 22.5008 17.1574V8.63243C22.5008 4.92503 20.2906 2.71484 16.5832 2.71484Z" fill="#408DFF" />
	<path d="M9.43558 15.0293C9.6291 15.0293 9.82262 14.958 9.9754 14.8053L14.4365 10.3442V12.8192C14.4365 13.2367 14.7828 13.583 15.2004 13.583C15.618 13.583 15.9643 13.2367 15.9643 12.8192V8.50064C15.9643 8.39879 15.9439 8.30712 15.9032 8.20527C15.8217 8.02193 15.6791 7.86916 15.4856 7.78768C15.3939 7.74694 15.2921 7.72656 15.1902 7.72656H10.8717C10.4541 7.72656 10.1078 8.07286 10.1078 8.49045C10.1078 8.90804 10.4541 9.25434 10.8717 9.25434H13.3467L8.88559 13.7155C8.59022 14.0108 8.59022 14.4997 8.88559 14.7951C9.04855 14.958 9.24206 15.0293 9.43558 15.0293Z" fill="#408DFF" />
	<path d="M19.1515 17.2601C19.0191 16.8629 18.5913 16.649 18.1839 16.7814C14.395 18.0443 10.2293 18.0443 6.44038 16.7814C6.04315 16.649 5.60519 16.8629 5.47279 17.2601C5.34038 17.6573 5.55427 18.0953 5.95149 18.2277C7.99871 18.9101 10.1478 19.2564 12.3071 19.2564C14.4663 19.2564 16.6154 18.9101 18.6626 18.2277C19.07 18.0851 19.2839 17.6573 19.1515 17.2601Z" fill="#408DFF" />
</svg>
