<svg width="23" height="23" viewBox="0 0 23 23" fill="none" xmlns="http://www.w3.org/2000/svg">
	<path fill-rule="evenodd" clip-rule="evenodd" d="M21.026 15.2792H17.3153C15.5764 15.2792 14.1611 13.8648 14.1602 12.1268C14.1602 10.387 15.5755 8.97162 17.3153 8.9707H21.026C21.4055 8.9707 21.7135 9.2787 21.7135 9.6582C21.7135 10.0377 21.4055 10.3457 21.026 10.3457H17.3153C16.3336 10.3466 15.5352 11.145 15.5352 12.1259C15.5352 13.1058 16.3345 13.9042 17.3153 13.9042H21.026C21.4055 13.9042 21.7135 14.2122 21.7135 14.5917C21.7135 14.9712 21.4055 15.2792 21.026 15.2792Z" fill="black" />
	<path fill-rule="evenodd" clip-rule="evenodd" d="M17.7352 12.7578H17.4492C17.0697 12.7578 16.7617 12.4498 16.7617 12.0703C16.7617 11.6908 17.0697 11.3828 17.4492 11.3828H17.7352C18.1147 11.3828 18.4227 11.6908 18.4227 12.0703C18.4227 12.4498 18.1147 12.7578 17.7352 12.7578Z" fill="black" />
	<mask id="mask0_3424_39980" style="mask-type:alpha" maskUnits="userSpaceOnUse" x="2" y="3" width="20" height="19">
		<path fill-rule="evenodd" clip-rule="evenodd" d="M2.79492 3.45898H21.7136V21.0341H2.79492V3.45898Z" fill="white" />
	</mask>
	<g mask="url(#mask0_3424_39980)">
		<path fill-rule="evenodd" clip-rule="evenodd" d="M8.29309 4.83398C6.01976 4.83398 4.16992 6.68382 4.16992 8.95715V15.5361C4.16992 17.8094 6.01976 19.6592 8.29309 19.6592H16.2168C18.4901 19.6592 20.339 17.8094 20.339 15.5361V8.95715C20.339 6.68382 18.4901 4.83398 16.2168 4.83398H8.29309ZM16.2168 21.0342H8.29309C5.26167 21.0342 2.79492 18.5675 2.79492 15.5361V8.95715C2.79492 5.92482 5.26167 3.45898 8.29309 3.45898H16.2168C19.2482 3.45898 21.714 5.92482 21.714 8.95715V15.5361C21.714 18.5675 19.2482 21.0342 16.2168 21.0342Z" fill="black" />
	</g>
	<path fill-rule="evenodd" clip-rule="evenodd" d="M12.5897 8.99414H7.64062C7.26112 8.99414 6.95312 8.68614 6.95312 8.30664C6.95312 7.92714 7.26112 7.61914 7.64062 7.61914H12.5897C12.9692 7.61914 13.2772 7.92714 13.2772 8.30664C13.2772 8.68614 12.9692 8.99414 12.5897 8.99414Z" fill="black" />
</svg>
