<svg width="24" height="24" viewBox="0 0 24 24" fill="none" xmlns="http://www.w3.org/2000/svg">
	<path opacity="0.4" d="M6.73032 7.69483L6.73034 7.69502L6.74381 7.69294C6.97041 7.65808 7.20794 7.64031 7.45681 7.64031H17.179C17.4217 7.64031 17.6336 7.6499 17.8277 7.68224L17.8396 7.68423L17.8516 7.68563C18.9959 7.81868 19.9122 8.30379 20.5439 9.03574C21.1765 9.76874 21.5502 10.7806 21.5502 12.0115V16.8726C21.5502 18.2196 21.1034 19.304 20.3569 20.0505C19.6105 20.7969 18.526 21.2438 17.179 21.2438H7.45681C6.10981 21.2438 5.02538 20.7969 4.27893 20.0505C3.53248 19.304 3.08562 18.2196 3.08562 16.8726V12.0115C3.08562 10.7891 3.45286 9.78363 4.07568 9.05291C4.6975 8.32337 5.60026 7.83664 6.73032 7.69483Z" fill="#BBBBCC" stroke="#BBBBCC" stroke-width="0.979839" />
	<path d="M17.1796 6.66027H7.71616L10.7387 3.62842C10.739 3.62814 10.7393 3.62785 10.7395 3.62757C11.88 2.49635 13.7283 2.49612 14.869 3.62688L16.5688 5.34603L16.5687 5.34606L16.5735 5.35072C16.9593 5.7305 17.2124 6.18152 17.3353 6.66159C17.2831 6.66064 17.2311 6.66027 17.1796 6.66027Z" fill="#BBBBCC" stroke="#BBBBCC" stroke-width="0.979839" />
	<mask id="path-3-inside-1_2486_56308" fill="white">
		<path d="M22.0388 12.498H19.1222C18.0527 12.498 17.1777 13.373 17.1777 14.4425C17.1777 15.5119 18.0527 16.3869 19.1222 16.3869H22.0388" />
	</mask>
	<path d="M22.0388 12.498H19.1222C18.0527 12.498 17.1777 13.373 17.1777 14.4425C17.1777 15.5119 18.0527 16.3869 19.1222 16.3869H22.0388" fill="#BBBBCC" />
	<path d="M22.0388 11.5182H19.1222V13.4779H22.0388V11.5182ZM19.1222 11.5182C17.5116 11.5182 16.1979 12.8319 16.1979 14.4425H18.1576C18.1576 13.9142 18.5939 13.4779 19.1222 13.4779V11.5182ZM16.1979 14.4425C16.1979 16.0531 17.5116 17.3668 19.1222 17.3668V15.4071C18.5939 15.4071 18.1576 14.9708 18.1576 14.4425H16.1979ZM19.1222 17.3668H22.0388V15.4071H19.1222V17.3668Z" fill="#BBBBCC" mask="url(#path-3-inside-1_2486_56308)" />
</svg>
