<svg width="27" height="27" viewBox="0 0 27 27" fill="none" xmlns="http://www.w3.org/2000/svg">
	<path opacity="0.4" d="M14.873 12.5825H8.37305" stroke="#35353A" stroke-width="2.70366" stroke-linecap="round" stroke-linejoin="round" />
	<path opacity="0.4" d="M2.95508 12.5826V7.57758C2.95508 5.36758 4.74258 3.58008 6.95258 3.58008H13.0409C15.2509 3.58008 17.0384 4.95591 17.0384 7.16591" stroke="#35353A" stroke-width="2.70366" stroke-linecap="round" stroke-linejoin="round" />
	<path d="M19.7251 13.7202C19.1834 14.2402 18.9234 15.0418 19.1401 15.8651C19.4109 16.8726 20.4076 17.5118 21.4476 17.5118H22.4551V19.0827C22.4551 21.4768 20.5159 23.416 18.1217 23.416H7.28841C4.89424 23.416 2.95508 21.4768 2.95508 19.0827V11.4993C2.95508 9.10518 4.89424 7.16602 7.28841 7.16602H18.1217C20.5051 7.16602 22.4551 9.11602 22.4551 11.4993V13.0701H21.2851C20.6784 13.0701 20.1259 13.3085 19.7251 13.7202Z" stroke="#35353A" stroke-width="2.70366" stroke-linecap="round" stroke-linejoin="round" />
	<path d="M24.623 14.1753V16.407C24.623 17.0137 24.1246 17.512 23.5071 17.512H21.4163C20.2463 17.512 19.1738 16.6562 19.0763 15.4862C19.0113 14.8037 19.2713 14.1645 19.7263 13.7204C20.1271 13.3087 20.6796 13.0703 21.2863 13.0703H23.5071C24.1246 13.0703 24.623 13.5687 24.623 14.1753Z" stroke="#35353A" stroke-width="2.70366" stroke-linecap="round" stroke-linejoin="round" />
</svg>
